<?xml version="1.0" encoding="utf-8"?>
<!-- Svg Vector Icons : http://www.onlinewebfonts.com/icon -->
<!DOCTYPE svg PUBLIC "-//W3C//DTD SVG 1.1//EN" "http://www.w3.org/Graphics/SVG/1.1/DTD/svg11.dtd">
<svg version="1.1" xmlns="http://www.w3.org/2000/svg" xmlns:xlink="http://www.w3.org/1999/xlink" x="0px" y="0px" viewBox="0 0 1000 1000" enable-background="new 0 0 1000 1000" xml:space="preserve">
<metadata> Svg Vector Icons : http://www.onlinewebfonts.com/icon </metadata>
<g><path d="M500,990c-66.1,0-130.3-13-190.7-38.5c-58.4-24.7-110.8-60-155.7-105c-45-45-80.3-97.4-105-155.7C23,630.3,10,566.1,10,500s13-130.3,38.5-190.7c24.7-58.4,60-110.8,105-155.7c45-45,97.4-80.3,155.7-105C369.7,23,433.9,10,500,10c66.1,0,130.3,13,190.7,38.5c58.3,24.7,110.7,60,155.7,105c45,45,80.3,97.4,105,155.7C977,369.7,990,433.9,990,500c0,66.1-13,130.3-38.5,190.7c-24.7,58.4-60,110.8-105,155.7c-45,45-97.4,80.3-155.7,105C630.3,977,566.1,990,500,990z M500,47.3c-120.9,0-234.6,47.1-320.1,132.6S47.3,379.1,47.3,500c0,120.9,47.1,234.6,132.6,320.1c85.5,85.5,199.2,132.6,320.1,132.6c120.9,0,234.6-47.1,320.1-132.6c85.5-85.5,132.6-199.2,132.6-320.1c0-120.9-47.1-234.6-132.6-320.1C734.6,94.4,620.9,47.3,500,47.3z"/><path d="M485.6,663c-10.3,0-18.7-8.4-18.7-18.7V272c0-10.3,8.4-18.7,18.7-18.7c10.3,0,18.7,8.4,18.7,18.7v372.4C504.3,654.6,495.9,663,485.6,663z"/><path d="M576.9,576.1c-5.2,0-10-2.1-13.5-5.8c-3.4-3.6-5.3-8.3-5.1-13.3c0.1-5,2.2-9.6,5.8-13.1l113.4-108c3.5-3.3,8.1-5.1,12.9-5.1c5.2,0,10,2.1,13.5,5.8c3.4,3.6,5.3,8.3,5.1,13.3c-0.1,5-2.2,9.6-5.8,13.1l-113.4,108C586.3,574.3,581.7,576.1,576.9,576.1z"/></g>
</svg>